<svg xmlns="http://www.w3.org/2000/svg" width="80" height="80" viewBox="0 0 80 80">
  <title>icon-font-awesome</title>
  <path d="M74,0H6A6,6,0,0,0,0,6V74a6,6,0,0,0,6,6H74a6,6,0,0,0,6-6V6A6,6,0,0,0,74,0ZM60.6,49.7c0,.7-.6,1-1.2,1.2a21.5,21.5,0,0,1-8.7,2.2c-4.3,0-6.3-2.6-11.5-2.6a27.7,27.7,0,0,0-10.8,2.7l-.6.2v7.3a1.9,1.9,0,0,1-.1.8v.2c-.7,2.4-4.1,3.5-6.3.4V25.6A5.4,5.4,0,1,1,30,21.4a5.3,5.3,0,0,1-2.1,4.2v3l.9-.4a25.6,25.6,0,0,1,9.9-2.3,26.4,26.4,0,0,1,9.7,2.2,5.4,5.4,0,0,0,2.2.4c3.6,0,7.6-2.6,8.6-2.6a1.3,1.3,0,0,1,1.4,1.2V49.7Z" fill="#228be6"/>
</svg>
