<svg xmlns="http://www.w3.org/2000/svg" width="80" height="80" viewBox="0 0 80 80">
  <title>icon-bootstrap</title>
  <g>
    <path d="M80,6V74a6,6,0,0,1-6,6H6a6,6,0,0,1-6-6V6A6,6,0,0,1,6,0H74A6,6,0,0,1,80,6Z" fill="#7952b3"/>
    <g style="isolation: isolate">
      <path d="M21.8,18H43.2a15.5,15.5,0,0,1,9.5,2.7c2.3,1.8,3.5,4.5,3.5,8.2a9.8,9.8,0,0,1-1.6,5.7A10.7,10.7,0,0,1,50,38.3h0a9.9,9.9,0,0,1,6.1,3.8,12.8,12.8,0,0,1,2.1,7.5,13,13,0,0,1-.9,4.9,10,10,0,0,1-2.9,3.9A15.2,15.2,0,0,1,49.3,61,22.6,22.6,0,0,1,42,62H21.8V18Zm7.7,18.4H42.1a6.6,6.6,0,0,0,4.6-1.6,5.5,5.5,0,0,0,1.8-4.5c0-2.2-.5-3.8-1.6-4.7a7.4,7.4,0,0,0-4.8-1.3H29.5V36.4Zm0,19.3H43.1a7.8,7.8,0,0,0,5.5-1.8,6.7,6.7,0,0,0,1.9-5.2,6.5,6.5,0,0,0-1.9-5c-1.3-1.2-3.1-1.7-5.5-1.7H29.5Z" fill="#fff"/>
    </g>
  </g>
</svg>
