<svg id="Layer_1" data-name="Layer 1" xmlns="http://www.w3.org/2000/svg" width="80" height="60" viewBox="0 0 80 60"><defs><style>.cls-1{fill:#000050;}</style></defs><title>log-sass</title><path class="cls-1" d="M68.79128,34.45368a16.49084,16.49084,0,0,0-7.25475,1.68861,14.92715,14.92715,0,0,1-1.62606-3.75246,10.37849,10.37849,0,0,1-.14072-3.15831A25.32817,25.32817,0,0,1,60.7235,25.823c-.01563-.14072-.172-.82867-1.78241-.8443s-3.002.3127-3.15832.73485a17.95671,17.95671,0,0,0-.67231,2.39219c-.28143,1.46971-3.22086,6.67624-4.89383,9.41241a9.5983,9.5983,0,0,1-1.1101-2.7518,10.37859,10.37859,0,0,1-.14071-3.15832,25.32864,25.32864,0,0,1,.95375-3.40848c-.01564-.14071-.172-.82866-1.78242-.8443s-3.002.31271-3.15832.73486-.32834,1.4228-.67231,2.39219c-.32834.96938-4.23715,9.66256-5.25344,11.92967-.516,1.157-.96938,2.07948-1.29772,2.70489s-.01564.04691-.04691.10945c-.28143.5316-.43778.82867-.43778.82867v.01563c-.21889.39088-.45342.76613-.56287.76613a5.21461,5.21461,0,0,1,.03127-2.486c.5785-3.0176,1.98567-7.7238,1.97-7.89579,0-.07818.2658-.90684-.90685-1.329a1.42477,1.42477,0,0,0-1.64169.28143c-.09382,0-.172.25016-.172.25016s1.26645-5.30034-2.42346-5.30034c-2.314,0-5.5036,2.51727-7.08276,4.81565-1.00065.54723-3.12705,1.70424-5.37852,2.93942-.85993.46906-1.75114.96939-2.59544,1.42281l-.172-.18762C13.86473,34.57877,5.5937,31.20156,5.93767,24.79112c.12509-2.32965.93812-8.4743,15.88539-15.91666C34.06545,2.77672,43.86873,4.44969,45.573,8.17087c2.42346,5.316-5.2378,15.19744-17.96487,16.62025-4.84692.54723-7.39546-1.329-8.03651-2.03258-.67231-.73486-.76612-.76613-1.01629-.62541-.40651.21889-.15635.87557,0,1.26645a7.5473,7.5473,0,0,0,4.59676,3.61174c2.32965.76612,8.02087,1.18828,14.90037-1.46971,7.70817-2.98633,13.72773-11.273,11.96095-18.1994-1.798-7.05149-13.4932-9.3655-24.54731-5.44106C18.88365,4.24643,11.754,7.90508,6.62563,12.70509.52789,18.39631-.44149,23.36831-.035,25.43216c1.42281,7.36419,11.57007,12.16421,15.63523,15.7134-.20326.10945-.39088.21889-.56287.31271-2.03258,1.00065-9.772,5.05017-11.71078,9.33423-2.18894,4.84692.344,8.33357,2.03258,8.80263,5.22216,1.45407,10.56941-1.157,13.46192-5.45669C21.698,49.83875,21.354,44.257,20.025,41.70843l-.04691-.09381,1.59479-.93811c1.03193-.60978,2.04822-1.17265,2.93943-1.65734a19.46613,19.46613,0,0,0-1.04756,5.316c-.2189,2.7518.90684,6.31663,2.39219,7.7238a2.64613,2.64613,0,0,0,1.92313.62541c1.71987,0,2.50163-1.42281,3.36157-3.127C32.20486,47.47783,33.143,45.07,33.143,45.07s-1.17264,6.51989,2.03258,6.51989c1.17264,0,2.34528-1.51662,2.87688-2.29838v.01564s.03127-.04691.09381-.15636c.12509-.18762.18763-.29706.18763-.29706v-.03128c.46905-.813,1.51661-2.67362,3.08013-5.75376,2.017-3.97134,3.95571-8.94335,3.95571-8.94335a28.539,28.539,0,0,0,.76613,3.22086,30.85962,30.85962,0,0,0,1.673,3.75246c-.46906.65668-.75049,1.03192-.75049,1.03192l.01564.01564c-.37525.50033-.7974,1.03193-1.23518,1.56352A45.44463,45.44463,0,0,0,42.08632,48.416a1.2882,1.2882,0,0,0,.344,1.71987,3.12867,3.12867,0,0,0,1.97.31271,8.77679,8.77679,0,0,0,2.93942-.67232,10.18,10.18,0,0,0,2.53291-1.329,5.6395,5.6395,0,0,0,2.42346-4.98764,10.02846,10.02846,0,0,0-.92248-3.51792c.14072-.20326.28143-.40652.42215-.62541a65.985,65.985,0,0,0,4.37787-7.58309,28.5372,28.5372,0,0,0,.76612,3.22086,22.597,22.597,0,0,0,1.42281,3.22086,13.90014,13.90014,0,0,0-4.26842,5.51923c-.92247,2.658-.20325,3.8619,1.157,4.14334a4.16253,4.16253,0,0,0,2.142-.43779,9.69926,9.69926,0,0,0,2.70489-1.39153c1.56352-1.157,3.0645-2.76744,2.98633-4.94073a9.47165,9.47165,0,0,0-.67232-2.92379,15.23249,15.23249,0,0,1,7.75508-.89121c6.95767.813,8.33357,5.15963,8.06778,6.97331a4.67131,4.67131,0,0,1-2.20457,3.12705c-.4847.29707-.64105.40652-.59414.62541.06254.32834.28143.3127.70359.25016a5.412,5.412,0,0,0,3.78372-4.83128c.18763-4.29969-3.89317-8.99026-11.13228-8.94335Zm-53.6601,18.09c-2.29838,2.51727-5.53487,3.471-6.91077,2.658-1.48535-.85993-.90684-4.56548,1.92313-7.2391A36.78814,36.78814,0,0,1,15.569,43.913c.32834-.20325.82866-.50032,1.4228-.85993a1.62629,1.62629,0,0,1,.15635-.09382c.10945-.06254.23453-.14071.35962-.21889a9.97323,9.97323,0,0,1-2.37656,9.80329ZM31.93905,41.11429c-.7974,1.9544-2.486,6.97331-3.50229,6.69187-.87558-.23453-1.40717-4.03389-.172-7.78634a17.3814,17.3814,0,0,1,2.73616-5.01891c1.26646-1.40717,2.64236-1.87623,2.98633-1.29772C34.39378,34.45368,32.43938,39.89473,31.93905,41.11429Zm13.86844,6.62933c-.344.172-.65668.29707-.7974.20326-.10945-.06254.14072-.29707.14072-.29707s1.73551-1.86059,2.42346-2.72053c.39088-.50033.85994-1.07883,1.36026-1.73551v.18762C48.93453,45.63286,46.77688,47.13385,45.80749,47.74362ZM56.502,45.30452c-.25016-.18762-.21889-.76612.62541-2.57981a9.66469,9.66469,0,0,1,2.37656-3.0645,3.87218,3.87218,0,0,1,.23453,1.34463A4.3997,4.3997,0,0,1,56.502,45.30452Z"/></svg>