<svg id="Layer_1" data-name="Layer 1" xmlns="http://www.w3.org/2000/svg" width="60" height="60" viewBox="0 0 60 60"><defs><style>.cls-1{fill:#000050;}</style></defs><title>logo-js</title><path class="cls-1" d="M0,0V60H60V0ZM32.65166,46.7969c0,5.84-3.42321,8.49822-8.41762,8.49822a8.75128,8.75128,0,0,1-8.45767-5.15487l-.00018.00011v-.00048l.00018.00037,4.59149-2.7787c.88583,1.57059,1.69166,2.8994,3.62452,2.8994,1.85274,0,3.02083-.72474,3.02083-3.54381V27.54571h5.63845Zm13.33275,8.4987c-5.23583,0-8.619-2.49691-10.27012-5.75941h0L40.30536,46.878c1.20857,1.97369,2.77928,3.42357,5.55821,3.42357,2.33631,0,3.82607-1.16807,3.82607-2.77917,0-1.93321-1.53035-2.618-4.10809-3.74536l-1.40929-.60452c-4.06809-1.73155-6.76666-3.90643-6.76666-8.49786,0-4.22893,3.222-7.45119,8.25667-7.45119,3.58452,0,6.16214,1.24869,8.01464,4.51107l-4.39012,2.81917c-.96666-1.73167-2.01357-2.41631-3.62452-2.41631a2.4533,2.4533,0,0,0-2.69857,2.41631c0,1.69167,1.04726,2.37643,3.46357,3.42369l1.40952.60405c4.79285,2.05417,7.49143,4.14833,7.49143,8.86035C55.32822,52.51679,51.341,55.2956,45.98441,55.2956Z"/></svg>