<svg xmlns="http://www.w3.org/2000/svg" width="205" height="30" viewBox="0 0 205 30">
  <title>logo-doitt</title>
  <g>
    <g>
      <path d="M96.4,25.2h4.9c7.9,0,9.6-4.5,9.6-10.2s-1.7-10.2-9.6-10.2H96.4V25.2ZM91.4.7h11.8c8.8,0,12.6,6.4,12.6,14.3S112,29.3,103.2,29.3H91.4Z"/>
      <path d="M123.4,15c0,5.5,2.6,10.9,8.7,10.9s8.7-5.4,8.7-10.9-2.5-10.9-8.7-10.9S123.4,9.5,123.4,15Zm22.4,0c0,8.2-5.1,15-13.7,15s-13.7-6.8-13.7-15,5.1-15,13.7-15S145.8,6.8,145.8,15Z"/>
    </g>
    <polygon points="149 0.7 154.1 0.7 154.1 29.3 149 29.3 149 0.7 149 0.7"/>
    <g>
      <polygon points="156.5 0.7 179.7 0.7 179.7 5 170.6 5 170.6 29.3 165.6 29.3 165.6 5 156.5 5 156.5 0.7 156.5 0.7"/>
      <polygon points="180.9 0.7 204.1 0.7 204.1 5 195 5 195 29.3 190 29.3 190 5 180.9 5 180.9 0.7 180.9 0.7"/>
    </g>
    <path d="M81,12.3h-.1v.8h1.8Z" fill="#ff9c22"/>
    <path d="M70.2,26.2c0-.1.1-.2.1-.3L61.6,15.1H61l-3.5,8.9,4.2,4.2,8.6-2.1Z" fill="#ff9c22"/>
    <path d="M81.1,11.7v.2h0l2.6,1.2h.4l1.8-1.8V6.7l-4.9,5Z" fill="#ff9c22"/>
    <path d="M70.7,25.6v-7H68V11.4h2.7V8.8a1.2,1.2,0,0,1-.8-.4L62,14a1,1,0,0,1-.1.9l8.7,10.7Z" fill="#ff9c22"/>
    <path d="M76.9,1.1l3.7,10.3h.2l5.1-5.3h0L80.5.7H77.3a.8.8,0,0,1-.4.4Z" fill="#ff9c22"/>
    <path d="M83.6,23.6l2.3-1.8V18.6l-1.8-1.8H81.7l1.2,6.5a1.1,1.1,0,0,1,.7.3Z" fill="#ff9c22"/>
    <path d="M80.6,13.2v-.7h-.1l-.5.7Z" fill="#ff9c22"/>
    <path d="M81.8,24.3a1.1,1.1,0,0,1,.7-1l-1.2-6.5H77.5l-6.2,9c.1.1.1.1.1.2l10.5-1.7Z" fill="#ff9c22"/>
    <path d="M71,8.8v2.6h4.2v1.8h4.3l.6-.9c0-.1-.1-.2,0-.4h0L72,8.2a1.1,1.1,0,0,1-1,.6Z" fill="#ff9c22"/>
    <polygon points="75.2 16.8 75.2 18.6 71 18.6 71 25.6 77.1 16.8 75.2 16.8 75.2 16.8" fill="#ff9c22"/>
    <path d="M52.4,10v8.1l4.9-4.9V23.6l3.3-8.5a.8.8,0,0,1-.4-.7.4.4,0,0,1,.1-.3L52.7,9.8Z" fill="#ff9c22"/>
    <path d="M34.4,11h-.5l-3.5,3.8,5.7,5.8,7.5-2.8v-.2a.7.7,0,0,1,.1-.5Z" fill="#ff9c22"/>
    <path d="M24.5,8.4V19.6a1.1,1.1,0,0,1,.8.3l3.3-3.7v-3l1.5,1.5,3.5-3.9c-.1,0-.1-.1-.1-.2L25.2,7.9A.8.8,0,0,1,24.5,8.4Z" fill="#ff9c22"/>
    <path d="M28.6,21.5V16.8l-3,3.3a2.1,2.1,0,0,1,.4,1.1Z" fill="#ff9c22"/>
    <path d="M25.3,7.5h0l8.3,2.6L34,10l2-8.5h-.1L25.3,7.2v.3Z" fill="#ff9c22"/>
    <path d="M51.9,10l-6.3,6.9a1.1,1.1,0,0,1,.3.7,1.4,1.4,0,0,1-.2.7l3.5,3,2.9-2.9V10h-.2Z" fill="#ff9c22"/>
    <path d="M51.6,9.7a.9.9,0,0,1,0-.7L46.5,4.6V6.1L44.9,7.7v8.8l.5.2,6.2-7Z" fill="#ff9c22"/>
    <path d="M52.9,9.4h0l7.5,4.2.4-.2L58.7,4.7,57.3,6V2.5h-.1L52.7,8.9a.8.8,0,0,1,.2.4Z" fill="#ff9c22"/>
    <path d="M28.6,21.8l-2.7-.3a.9.9,0,0,1-.3.7l3,3.2Z" fill="#ff9c22"/>
    <path d="M60.8,2.6,58.9,4.4l2.2,9.1h0l.7.2,7.9-5.6a1.1,1.1,0,0,1-.2-.6c0-.1.1-.3.1-.4Z" fill="#ff9c22"/>
    <path d="M43,9.6,40.3,6.9l-5.7,3.5h0v.2l9.3,6.1a.8.8,0,0,1,.7-.3V8.1L43,9.6Z" fill="#ff9c22"/>
    <path d="M44.1,29.1a.5.5,0,0,1,.4-.2V18.8a1.6,1.6,0,0,1-.8-.6L36.4,21l1.2,1.2v2.7l6.5,4.3Z" fill="#ff9c22"/>
    <path d="M72.2,7.5a.4.4,0,0,1-.1.3l8.1,3.7h0L76.5,1.3H76L71.8,6.5a1.8,1.8,0,0,1,.4,1Z" fill="#ff9c22"/>
    <path d="M7.6,25.5l-.3-.4L0,27.5H0l1.8,1.8H6.7Z" fill="#ff9c22"/>
    <path d="M25.3,22.5a1.7,1.7,0,0,1-1.8.1l-4.7,5.9.9.8h7.2l1.7-1.8V25.9Z" fill="#ff9c22"/>
    <path d="M8.6,25.2a.6.6,0,0,1-.6.4H8l-.9,3.7H8.9l1.9-1.8V26.3L8.7,25.2Z" fill="#ff9c22"/>
    <path d="M7.8,23.9V11.7a.9.9,0,0,1-.8-.6L.9,13.3v.3a1.5,1.5,0,0,1-.4,1.1L7.7,24A.1.1,0,0,1,7.8,23.9Z" fill="#ff9c22"/>
    <path d="M0,6v6.2a1.8,1.8,0,0,1,.8.7l6.1-2.1c-.1-.1-.1-.1,0-.2v-.5L0,6Z" fill="#ff9c22"/>
    <path d="M69.8,6.8a1.1,1.1,0,0,1,1.1-.6l.6.2L75.7,1,75.5.7H62.6L61,2.3Z" fill="#ff9c22"/>
    <polygon points="37.6 25.3 37.6 27.5 39.4 29.3 43.7 29.3 37.6 25.3 37.6 25.3" fill="#ff9c22"/>
    <path d="M.2,15H0V27.1l7.2-2.3h0c0-.2,0-.4.2-.5Z" fill="#ff9c22"/>
    <path d="M82.4,25.2a1,1,0,0,1-.5-.6L71.5,26.3c0,.1-.1.1-.1.2l3.1,2.8h6L82,27.8l.4-2.6Z" fill="#ff9c22"/>
    <path d="M45.4,18.6l-.5.2V28.9a.7.7,0,0,1,.6.4h1l1.8-1.8V22.2l.6-.6Z" fill="#ff9c22"/>
    <path d="M71.2,26.7a.7.7,0,0,1-.9-.2L62,28.6l.7.7H74l-2.8-2.6Z" fill="#ff9c22"/>
    <path d="M83.8,23.9c0,.1.1.2.1.4a1.1,1.1,0,0,1-1,1h-.1l-.3,2.1,3.4-3.5V22.2Z" fill="#ff9c22"/>
    <path d="M10.8,21.5V20.4l.5.5L14.1,18c0-.1-.1-.2-.1-.4s.1-.2.2-.3L8.7,11.5l-.5.2V23.9h.2Z" fill="#ff9c22"/>
    <path d="M10.8,25.9V22.1L8.7,24.3a.6.6,0,0,1,.1.4v.2Z" fill="#ff9c22"/>
    <path d="M24.3,6.5h.1l.7.4L35.7,1.1V.7H30.4L28.6,2.5,26.9.7H22.5Z" fill="#ff9c22"/>
    <path d="M7.1,9.8l.7-.4V.7h-6L0,2.5V5.6Z" fill="#ff9c22"/>
    <path d="M51.9,8.8h.5l4.5-6.6L55.5.7H48.3L46.5,2.5V4.1Z" fill="#ff9c22"/>
    <path d="M37.1.9a.7.7,0,0,1-.7.7l-2,8.5h0L40,6.7l-.6-.6V2.5L37.6.7H37c.1,0,.1.1,0,.2Z" fill="#ff9c22"/>
    <path d="M14.8,17l8.8-9a.8.8,0,0,1-.2-.5,1.1,1.1,0,0,1,.5-.9L22.1.7H19.7L17.9,2.5V9.6l-3.1-3Z" fill="#ff9c22"/>
    <path d="M8.2,9.4c.2.1.4.1.5.3l4.8-4.5L9,.7H8.2Z" fill="#ff9c22"/>
    <path d="M14.4,17V6.2l-.6-.7L9,9.9a1.9,1.9,0,0,1,.2.7,1.1,1.1,0,0,1-.3.7L14.5,17Z" fill="#ff9c22"/>
    <path d="M24.2,19.6V8.4h-.4l-8.7,9c.1.1.2.2.2.3h0l7.6,2.8a1.8,1.8,0,0,1,1.3-.9Z" fill="#ff9c22"/>
    <path d="M22.7,21.2v-.4L15.1,18a.5.5,0,0,1-.5.3h0c-.1,0-.2,0-.2-.1l-2.8,3,7,7,4.6-5.9A1.6,1.6,0,0,1,22.7,21.2Z" fill="#ff9c22"/>
    <path d="M84.6,1.6h.3c.1-.1.1-.1,0-.1h-.5v.4Zm.1-.5h.4v.2a.4.4,0,0,1-.1.3h-.3l.4.6H85l-.4-.6h-.2v.6h-.2V1.1Zm-.9,1c0,.1.1.2.2.3l.3.2a.9.9,0,0,0,.7,0l.3-.2.2-.3V1.3L85.3,1,85,.8h-.7L84,1a1.1,1.1,0,0,0-.3.7c0,.2.1.3.1.4Zm-.2-.8.3-.4.3-.2h.9a1.2,1.2,0,0,1,.6.6v.4c0,.2-.1.3-.1.5a1.5,1.5,0,0,1-.6.5h-.9a1.5,1.5,0,0,1-.6-.5A1.4,1.4,0,0,1,83.6,1.3Z" fill="#ff9c22"/>
  </g>
</svg>
