<svg id="Layer_1" data-name="Layer 1" xmlns="http://www.w3.org/2000/svg" width="42" height="60" viewBox="0 0 42 60"><defs><style>.cls-1{fill:#000050;}</style></defs><title>logo-html-5</title><path class="cls-1" d="M3.95488,0H6.65929V2.67185H9.13306V0h2.7045V8.09111H9.13315V5.38173H6.65938V8.09111H3.95508V0Z"/><path class="cls-1" d="M15.39378,2.68311h-2.3807V0h7.46715V2.68311H18.09838v5.408H15.394v-5.408Z"/><path class="cls-1" d="M21.66532,0h2.81987l1.73464,2.84294L27.95265,0h2.82094V8.09111H28.08038V4.08069L26.21983,6.95753H26.1733L24.31142,4.08069V8.09111h-2.6461Z"/><path class="cls-1" d="M32.11952,0h2.70517V5.41667h3.803V8.09111H32.11952Z"/><path class="cls-1" d="M0,12.36737,3.82222,55.23843,20.97427,60l17.19936-4.76829L42,12.36737Zm34.02733,10.174-.23963,2.66553-.10547,1.18185H13.56179l.48055,5.38426H33.20385l-.12827,1.41187L31.83994,47.02745l-.07908.88827L21,50.89805v.0009l-.02422.00672-10.7706-2.99L9.46855,39.66h5.27817l.37441,4.19342,5.85579,1.5812.00482-.00129v-.00042l5.8643-1.5828.61034-6.81926H9.23366L7.94137,22.54138l-.12591-1.41064H34.153Z"/></svg>